PathFileType	4	(X/Y/Z)	SUBJ63_0_static_RCNL2025.trc
DataRate	CameraRate	NumFrames	NumMarkers	Units	OrigDataRate	OrigDataStartFrame	OrigNumFrames
100	100	11	25	mm	100	30	116
Frame#	Time	R_Shoulder			L_Shoulder			C7			J_Notch			R_Elbow			L_Elbow			R_Wrist			L_Wrist			R_Asis			L_Asis			Sacral			Thoracic			Sternum			R_Thigh_Lateral			R_Knee_Lateral			R_Shank_Lateral			R_Ankle_Lateral			R_Heel			R_Toe			L_Thigh_Lateral			L_Knee_Lateral			L_Shank_Lateral			L_Ankle_Lateral			L_Heel			L_Toe		
		X1	Y1	Z1	X2	Y2	Z2	X3	Y3	Z3	X4	Y4	Z4	X5	Y5	Z5	X6	Y6	Z6	X7	Y7	Z7	X8	Y8	Z8	X9	Y9	Z9	X10	Y10	Z10	X11	Y11	Z11	X12	Y12	Z12	X13	Y13	Z13	X14	Y14	Z14	X15	Y15	Z15	X16	Y16	Z16	X17	Y17	Z17	X18	Y18	Z18	X19	Y19	Z19	X20	Y20	Z20	X21	Y21	Z21	X22	Y22	Z22	X23	Y23	Z23	X24	Y24	Z24	X25	Y25	Z25
30	0.29000000	-332.965424	1296.812622	-44.751266	-328.242554	1299.861328	-385.520050	-416.000366	1362.485962	-219.441025	-294.531158	1261.044556	-217.731781	-360.536804	1001.683533	30.205965	-348.109467	1000.742432	-473.624908	-289.076935	785.925781	62.121668	-280.223969	787.908783	-498.006897	-254.337845	847.257202	-89.791824	-239.952972	843.341492	-341.971008	-472.736755	866.601318	-231.250107	-483.707550	1170.690430	-219.124207	-229.596375	1087.765747	-216.866608	-356.631226	508.756653	-43.610203	-366.730621	452.522217	-92.393761	-399.608551	272.438507	-47.409485	-411.076874	61.348969	-127.634674	-453.421295	58.709602	-179.108017	-293.949280	47.051243	-130.749680	-340.278748	473.798615	-425.422882	-348.050415	448.373962	-357.082703	-367.506775	258.531677	-396.819244	-389.058044	60.643131	-323.102753	-441.299713	53.186874	-275.828003	-269.527405	44.126698	-305.233093
31	0.30000000	-332.990143	1296.820923	-44.721645	-328.255951	1299.905273	-385.517426	-416.033630	1362.561157	-219.434341	-294.583069	1261.050171	-217.665482	-360.767731	1001.739136	30.235937	-348.104340	1000.738647	-473.590637	-289.090225	785.938812	62.159767	-280.255905	787.938354	-498.163971	-254.479706	847.295532	-89.891121	-239.944656	843.316345	-342.091156	-472.821320	866.549622	-231.177933	-483.804657	1170.678101	-219.145554	-229.545166	1087.847412	-216.913406	-356.618195	508.745331	-43.607296	-366.724640	452.518311	-92.396080	-399.519562	272.463501	-47.497177	-411.045197	61.338104	-127.639099	-453.444214	58.712082	-179.093140	-293.900452	47.119297	-130.771286	-340.330200	473.791016	-425.426514	-348.060913	448.345459	-357.071533	-367.479279	258.519745	-396.813232	-389.083588	60.641724	-323.069580	-441.209534	53.302662	-275.941864	-269.521637	44.091640	-305.281342
32	0.31000000	-333.059998	1296.839233	-44.659134	-328.251801	1299.947876	-385.413330	-416.128021	1362.522827	-219.466690	-294.597412	1261.035767	-217.646378	-360.886505	1001.768555	30.291641	-348.162567	1000.784302	-473.627991	-289.143219	785.957367	62.215588	-280.217484	788.003235	-498.210358	-254.487106	847.295837	-89.844261	-239.954544	843.402039	-342.050232	-472.827881	866.537903	-231.173721	-483.880035	1170.688599	-219.103104	-229.740753	1087.908936	-216.805984	-356.685883	508.778442	-43.553509	-366.760742	452.393066	-92.402916	-399.527374	272.453918	-47.452988	-411.131287	61.337482	-127.684174	-453.414154	58.689514	-179.115112	-293.885529	47.111732	-130.799484	-340.348938	473.806976	-425.374023	-348.063904	448.343018	-357.100098	-367.622040	258.480011	-396.835114	-389.084259	60.634026	-323.077209	-441.235748	53.375851	-275.985535	-269.525726	44.129112	-305.252197
33	0.32000000	-333.087891	1296.859009	-44.641483	-328.354309	1299.957153	-385.417480	-416.206757	1362.519165	-219.421936	-294.580322	1261.055420	-217.674652	-361.056702	1001.667419	30.277607	-348.239288	1000.764709	-473.618835	-289.225571	786.017517	62.325937	-280.244034	788.016144	-498.073700	-254.519257	847.398438	-89.763054	-240.123657	843.340881	-341.982513	-472.959259	866.561951	-231.204941	-483.936371	1170.709717	-219.061768	-229.799438	1087.909302	-216.751038	-356.701416	508.791290	-43.566166	-366.821808	452.419617	-92.379951	-399.539398	272.353027	-47.476742	-411.041412	61.319584	-127.670013	-453.405640	58.645832	-179.135315	-293.935089	47.104664	-130.853333	-340.334229	473.814362	-425.405365	-348.135834	448.367096	-357.133789	-367.505188	258.605560	-396.862915	-389.020386	60.626972	-323.124756	-441.358063	53.242088	-275.834625	-269.553925	43.997524	-305.137177
34	0.33000000	-333.264679	1296.897827	-44.625187	-328.371399	1300.004639	-385.476898	-416.211731	1362.530762	-219.415115	-294.670380	1261.072510	-217.569595	-361.001068	1001.750610	30.320831	-348.329987	1000.892944	-473.616821	-289.241608	786.018555	62.353281	-280.250931	788.166229	-498.292618	-254.555237	847.302429	-89.800400	-240.119949	843.370911	-342.073669	-472.971924	866.567078	-231.204422	-484.122253	1170.766724	-219.043442	-229.739288	1088.011475	-216.758347	-356.696106	508.790680	-43.562130	-366.838928	452.503357	-92.400528	-399.559601	272.449890	-47.476696	-411.102661	61.319729	-127.718048	-453.442963	58.708874	-179.094360	-293.940033	47.104771	-130.854492	-340.348724	473.838287	-425.377869	-348.155151	448.388947	-357.127014	-367.534698	258.586365	-396.893433	-389.052185	60.596310	-323.136444	-441.327148	53.158863	-275.744507	-269.549591	44.043709	-305.253815
35	0.34000000	-333.289642	1296.892212	-44.618584	-328.463470	1300.088745	-385.368713	-416.299164	1362.524902	-219.348602	-294.797363	1261.047119	-217.603043	-360.918060	1001.810913	30.425346	-348.244629	1000.993774	-473.634521	-289.271683	786.066772	62.444620	-280.306305	788.138275	-498.305893	-254.531189	847.388550	-89.739441	-240.093719	843.445984	-342.017792	-473.070435	866.535095	-231.109314	-484.120880	1170.801880	-219.057007	-229.784241	1088.061401	-216.704956	-356.693787	508.789673	-43.561985	-366.838104	452.507843	-92.402069	-399.574524	272.490234	-47.438194	-411.154572	61.374355	-127.673782	-453.487732	58.727863	-179.072693	-293.929535	47.091946	-130.857468	-340.372192	473.852356	-425.368011	-348.215515	448.356201	-357.070282	-367.566589	258.615112	-396.927948	-388.941895	60.603134	-323.131378	-441.230286	53.322208	-275.887024	-269.578949	44.152424	-305.232208
36	0.35000000	-333.280579	1296.916138	-44.609043	-328.494080	1300.086914	-385.321716	-416.428894	1362.587524	-219.239304	-294.773560	1261.092651	-217.412979	-360.757599	1002.013855	30.725763	-348.231903	1001.052368	-473.565399	-289.325394	786.076294	62.505278	-280.425995	788.083435	-498.222260	-254.642075	847.396057	-89.742317	-240.160782	843.474304	-341.892487	-473.073334	866.530640	-231.088470	-484.215820	1170.756714	-218.966354	-229.780762	1088.107666	-216.721191	-356.742126	508.728485	-43.537811	-366.920441	452.502167	-92.392715	-399.520416	272.440521	-47.478683	-411.125031	61.347706	-127.716255	-453.459290	58.749363	-179.079208	-293.947144	47.130833	-130.861832	-340.422150	473.845825	-425.307831	-348.226257	448.406525	-357.094910	-367.567474	258.624969	-396.870605	-389.016937	60.647209	-323.047150	-441.282562	53.346119	-275.876221	-269.526581	44.162376	-305.252472
37	0.36000000	-333.361481	1296.930786	-44.544781	-328.499725	1300.114258	-385.329498	-416.493713	1362.559204	-219.300568	-294.843781	1261.132690	-217.492828	-360.661377	1001.997498	30.808540	-348.238617	1001.089661	-473.543091	-289.398895	786.108032	62.612984	-280.447220	788.250580	-498.322235	-254.712860	847.398987	-89.828392	-240.267792	843.487305	-341.965881	-473.199707	866.470215	-230.982529	-484.358673	1170.785645	-218.981079	-229.882980	1088.141235	-216.768982	-356.831818	508.728149	-43.589462	-366.918304	452.489380	-92.382675	-399.644012	272.486359	-47.409706	-411.135895	61.363655	-127.574127	-453.453827	58.747978	-179.081589	-294.003784	47.078865	-130.815674	-340.479431	473.875580	-425.300507	-348.229706	448.413208	-357.076080	-367.532593	258.579773	-396.814392	-388.995483	60.653984	-323.163879	-441.191895	53.302094	-275.931152	-269.518982	44.155598	-305.238678
38	0.37000000	-333.401123	1296.932617	-44.506824	-328.573151	1300.178711	-385.258118	-416.598175	1362.548584	-219.218338	-294.866730	1261.129639	-217.488556	-360.564178	1002.053284	30.881128	-348.251312	1001.147766	-473.557281	-289.460373	786.146210	62.713667	-280.424484	788.304413	-498.318817	-254.732941	847.403748	-89.709702	-240.255630	843.467957	-342.087311	-473.276489	866.483459	-231.042572	-484.365051	1170.778320	-218.985001	-229.950424	1088.202759	-216.674286	-356.918579	508.783508	-43.538639	-366.953857	452.517029	-92.353943	-399.760315	272.486694	-47.419418	-411.177826	61.382717	-127.652855	-453.454285	58.747238	-179.081482	-293.936981	47.108753	-130.839355	-340.492126	473.873627	-425.342072	-348.223846	448.410706	-357.098083	-367.520721	258.558075	-396.752563	-389.074249	60.665756	-323.081421	-441.329620	53.205162	-275.796875	-269.509644	44.154030	-305.263763
39	0.38000000	-333.457916	1296.952026	-44.500816	-328.584534	1300.208740	-385.240051	-416.608398	1362.551514	-219.207169	-294.884277	1261.123413	-217.451630	-360.607300	1001.970947	30.947342	-348.250824	1001.158508	-473.557983	-289.500320	786.128601	62.692629	-280.606293	788.203583	-498.262512	-254.787918	847.404907	-89.649620	-240.309708	843.490601	-341.965485	-473.276428	866.485413	-231.051208	-484.414520	1170.795532	-218.948044	-230.011810	1088.193359	-216.625793	-356.947205	508.799835	-43.507763	-366.962616	452.484436	-92.345833	-399.755951	272.449219	-47.416847	-411.097015	61.376427	-127.606995	-453.416443	58.681602	-179.123260	-293.883362	47.108505	-130.814651	-340.480591	473.877411	-425.317749	-348.234680	448.359222	-357.072113	-367.582275	258.520477	-396.747253	-389.060242	60.626755	-323.121948	-441.160583	53.261353	-275.944458	-269.516754	44.143532	-305.236694
40	0.39000000	-333.514221	1296.981323	-44.454628	-328.601715	1300.238892	-385.295654	-416.718781	1362.578247	-219.257919	-294.990479	1261.119507	-217.328751	-360.582611	1001.978699	31.058460	-348.311859	1001.177979	-473.628113	-289.601151	786.207214	62.768751	-280.637863	788.308441	-498.380768	-254.840118	847.376465	-89.661545	-240.354202	843.478210	-341.896027	-473.342804	866.483887	-231.011078	-484.529022	1170.844482	-218.973679	-230.062088	1088.192139	-216.546875	-356.962616	508.817383	-43.508995	-367.087738	452.347870	-92.273865	-399.687897	272.454865	-47.407501	-411.120667	61.402493	-127.578232	-453.406219	58.657978	-179.132614	-293.883759	47.108891	-130.800293	-340.574158	473.879822	-425.320007	-348.299713	448.339233	-357.066742	-367.583313	258.581696	-396.767456	-389.056122	60.642056	-323.106506	-441.187805	53.303116	-275.959686	-269.511749	44.141750	-305.230988
